<svg width="100" height="100" viewBox="0 0 100 100" fill="none" xmlns="http://www.w3.org/2000/svg">
  <path d="M0 0H1V1H0V0Z" fill="white"/>
  <path d="M10 0H11V1H10V0Z" fill="white"/>
  <path d="M20 0H21V1H20V0Z" fill="white"/>
  <path d="M30 0H31V1H30V0Z" fill="white"/>
  <path d="M40 0H41V1H40V0Z" fill="white"/>
  <path d="M50 0H51V1H50V0Z" fill="white"/>
  <path d="M60 0H61V1H60V0Z" fill="white"/>
  <path d="M70 0H71V1H70V0Z" fill="white"/>
  <path d="M80 0H81V1H80V0Z" fill="white"/>
  <path d="M90 0H91V1H90V0Z" fill="white"/>
  <path d="M0 10H1V11H0V10Z" fill="white"/>
  <path d="M10 10H11V11H10V10Z" fill="white"/>
  <path d="M20 10H21V11H20V10Z" fill="white"/>
  <path d="M30 10H31V11H30V10Z" fill="white"/>
  <path d="M40 10H41V11H40V10Z" fill="white"/>
  <path d="M50 10H51V11H50V10Z" fill="white"/>
  <path d="M60 10H61V11H60V10Z" fill="white"/>
  <path d="M70 10H71V11H70V10Z" fill="white"/>
  <path d="M80 10H81V11H80V10Z" fill="white"/>
  <path d="M90 10H91V11H90V10Z" fill="white"/>
  <path d="M0 20H1V21H0V20Z" fill="white"/>
  <path d="M10 20H11V21H10V20Z" fill="white"/>
  <path d="M20 20H21V21H20V20Z" fill="white"/>
  <path d="M30 20H31V21H30V20Z" fill="white"/>
  <path d="M40 20H41V21H40V20Z" fill="white"/>
  <path d="M50 20H51V21H50V20Z" fill="white"/>
  <path d="M60 20H61V21H60V20Z" fill="white"/>
  <path d="M70 20H71V21H70V20Z" fill="white"/>
  <path d="M80 20H81V21H80V20Z" fill="white"/>
  <path d="M90 20H91V21H90V20Z" fill="white"/>
  <path d="M0 30H1V31H0V30Z" fill="white"/>
  <path d="M10 30H11V31H10V30Z" fill="white"/>
  <path d="M20 30H21V31H20V30Z" fill="white"/>
  <path d="M30 30H31V31H30V30Z" fill="white"/>
  <path d="M40 30H41V31H40V30Z" fill="white"/>
  <path d="M50 30H51V31H50V30Z" fill="white"/>
  <path d="M60 30H61V31H60V30Z" fill="white"/>
  <path d="M70 30H71V31H70V30Z" fill="white"/>
  <path d="M80 30H81V31H80V30Z" fill="white"/>
  <path d="M90 30H91V31H90V30Z" fill="white"/>
  <path d="M0 40H1V41H0V40Z" fill="white"/>
  <path d="M10 40H11V41H10V40Z" fill="white"/>
  <path d="M20 40H21V41H20V40Z" fill="white"/>
  <path d="M30 40H31V41H30V40Z" fill="white"/>
  <path d="M40 40H41V41H40V40Z" fill="white"/>
  <path d="M50 40H51V41H50V40Z" fill="white"/>
  <path d="M60 40H61V41H60V40Z" fill="white"/>
  <path d="M70 40H71V41H70V40Z" fill="white"/>
  <path d="M80 40H81V41H80V40Z" fill="white"/>
  <path d="M90 40H91V41H90V40Z" fill="white"/>
  <path d="M0 50H1V51H0V50Z" fill="white"/>
  <path d="M10 50H11V51H10V50Z" fill="white"/>
  <path d="M20 50H21V51H20V50Z" fill="white"/>
  <path d="M30 50H31V51H30V50Z" fill="white"/>
  <path d="M40 50H41V51H40V50Z" fill="white"/>
  <path d="M50 50H51V51H50V50Z" fill="white"/>
  <path d="M60 50H61V51H60V50Z" fill="white"/>
  <path d="M70 50H71V51H70V50Z" fill="white"/>
  <path d="M80 50H81V51H80V50Z" fill="white"/>
  <path d="M90 50H91V51H90V50Z" fill="white"/>
  <path d="M0 60H1V61H0V60Z" fill="white"/>
  <path d="M10 60H11V61H10V60Z" fill="white"/>
  <path d="M20 60H21V61H20V60Z" fill="white"/>
  <path d="M30 60H31V61H30V60Z" fill="white"/>
  <path d="M40 60H41V61H40V60Z" fill="white"/>
  <path d="M50 60H51V61H50V60Z" fill="white"/>
  <path d="M60 60H61V61H60V60Z" fill="white"/>
  <path d="M70 60H71V61H70V60Z" fill="white"/>
  <path d="M80 60H81V61H80V60Z" fill="white"/>
  <path d="M90 60H91V61H90V60Z" fill="white"/>
  <path d="M0 70H1V71H0V70Z" fill="white"/>
  <path d="M10 70H11V71H10V70Z" fill="white"/>
  <path d="M20 70H21V71H20V70Z" fill="white"/>
  <path d="M30 70H31V71H30V70Z" fill="white"/>
  <path d="M40 70H41V71H40V70Z" fill="white"/>
  <path d="M50 70H51V71H50V70Z" fill="white"/>
  <path d="M60 70H61V71H60V70Z" fill="white"/>
  <path d="M70 70H71V71H70V70Z" fill="white"/>
  <path d="M80 70H81V71H80V70Z" fill="white"/>
  <path d="M90 70H91V71H90V70Z" fill="white"/>
  <path d="M0 80H1V81H0V80Z" fill="white"/>
  <path d="M10 80H11V81H10V80Z" fill="white"/>
  <path d="M20 80H21V81H20V80Z" fill="white"/>
  <path d="M30 80H31V81H30V80Z" fill="white"/>
  <path d="M40 80H41V81H40V80Z" fill="white"/>
  <path d="M50 80H51V81H50V80Z" fill="white"/>
  <path d="M60 80H61V81H60V80Z" fill="white"/>
  <path d="M70 80H71V81H70V80Z" fill="white"/>
  <path d="M80 80H81V81H80V80Z" fill="white"/>
  <path d="M90 80H91V81H90V80Z" fill="white"/>
  <path d="M0 90H1V91H0V90Z" fill="white"/>
  <path d="M10 90H11V91H10V90Z" fill="white"/>
  <path d="M20 90H21V91H20V90Z" fill="white"/>
  <path d="M30 90H31V91H30V90Z" fill="white"/>
  <path d="M40 90H41V91H40V90Z" fill="white"/>
  <path d="M50 90H51V91H50V90Z" fill="white"/>
  <path d="M60 90H61V91H60V90Z" fill="white"/>
  <path d="M70 90H71V91H70V90Z" fill="white"/>
  <path d="M80 90H81V91H80V90Z" fill="white"/>
  <path d="M90 90H91V91H90V90Z" fill="white"/>
</svg>
